<svg width="40" height="40" viewBox="0 0 40 40" fill="none" xmlns="http://www.w3.org/2000/svg">
<path d="M0 12C0 5.37258 5.37258 0 12 0H28C34.6274 0 40 5.37258 40 12V28C40 34.6274 34.6274 40 28 40H12C5.37258 40 0 34.6274 0 28V12Z" fill="#1365D4"/>
<path d="M25.9652 13.2174C26.8299 12.8005 27.7282 13.7232 27.2883 14.5764L19.5533 29.579C19.1109 30.437 17.8298 30.2321 17.6771 29.2789L16.7844 23.7055C16.7107 23.2452 16.3288 22.8969 15.8637 22.8659L10.9402 22.537C9.91527 22.4685 9.64727 21.0845 10.5725 20.6384L25.9652 13.2174Z" fill="white"/>
</svg>
