<svg width="80" height="80" viewBox="0 0 80 80" fill="none" xmlns="http://www.w3.org/2000/svg">
<g filter="url(#filter0_d_1_13241)">
<rect x="16" y="12" width="48" height="48" rx="24" fill="white"/>
<path d="M43.7957 42.7041C44.0071 42.9154 44.1258 43.2021 44.1258 43.501C44.1258 43.7999 44.0071 44.0865 43.7957 44.2978C43.5844 44.5092 43.2977 44.6279 42.9989 44.6279C42.7 44.6279 42.4133 44.5092 42.202 44.2978L34.702 36.7978C34.5971 36.6933 34.5139 36.5691 34.4571 36.4324C34.4003 36.2956 34.3711 36.149 34.3711 36.001C34.3711 35.8529 34.4003 35.7063 34.4571 35.5696C34.5139 35.4328 34.5971 35.3086 34.702 35.2041L42.202 27.7041C42.4133 27.4928 42.7 27.374 42.9989 27.374C43.2977 27.374 43.5844 27.4928 43.7957 27.7041C44.0071 27.9154 44.1258 28.2021 44.1258 28.501C44.1258 28.7999 44.0071 29.0865 43.7957 29.2978L37.0935 36L43.7957 42.7041Z" fill="#0064D8"/>
</g>
<defs>
<filter id="filter0_d_1_13241" x="0" y="0" width="80" height="80" filterUnits="userSpaceOnUse" color-interpolation-filters="sRGB">
<feFlood flood-opacity="0" result="BackgroundImageFix"/>
<feColorMatrix in="SourceAlpha" type="matrix" values="0 0 0 0 0 0 0 0 0 0 0 0 0 0 0 0 0 0 127 0" result="hardAlpha"/>
<feOffset dy="4"/>
<feGaussianBlur stdDeviation="8"/>
<feComposite in2="hardAlpha" operator="out"/>
<feColorMatrix type="matrix" values="0 0 0 0 0 0 0 0 0 0 0 0 0 0 0 0 0 0 0.12 0"/>
<feBlend mode="normal" in2="BackgroundImageFix" result="effect1_dropShadow_1_13241"/>
<feBlend mode="normal" in="SourceGraphic" in2="effect1_dropShadow_1_13241" result="shape"/>
</filter>
</defs>
</svg>
